<svg width="2" height="10" viewBox="0 0 2 10" xmlns="http://www.w3.org/2000/svg">
<path d="M1.00995 7.97842C0.471337 7.97842 0.0198517 8.42991 0.0198517 8.96852C0.0198517 9.50714 0.471337 9.95862 1.00995 9.95862C1.52876 9.95862 2.00005 9.50714 1.97629 8.99229C2.00005 8.42595 1.55253 7.97842 1.00995 7.97842Z"/>
<path d="M0.764356 0.0310519C0.293069 0.180638 0 0.655794 0 1.23214C0.0237624 1.57971 0.0435642 1.93167 0.0673266 2.27924C0.134653 3.60352 0.20198 4.9014 0.269306 6.22567C0.293069 6.67443 0.605941 7 1.0099 7C1.41386 7 1.73069 6.65243 1.75049 6.19927C1.75049 5.9265 1.75049 5.67572 1.77426 5.39855C1.81782 4.54943 1.86535 3.70031 1.90891 2.85119C1.93267 2.30124 1.97624 1.75129 2 1.20134C2 1.00336 1.97624 0.827377 1.90891 0.651393C1.70693 0.15864 1.23564 -0.0921366 0.764356 0.0310519Z"/>
</svg>
